<mxfile host="app.diagrams.net" modified="2024-03-09T03:11:06.440Z" agent="Mozilla/5.0 (Macintosh; Intel Mac OS X 10_15_7) AppleWebKit/537.36 (KHTML, like Gecko) Chrome/116.0.0.0 Safari/537.36" version="23.0.1" etag="w6qxy7zhmYfFRkvAKJ_G" type="github">
  <diagram name="Page-1" id="vcz7g3ri5UO7TfRKM5f3">
    <mxGraphModel>
      <root>
        <mxCell id="0" />
        <mxCell id="1" parent="0" />
      </root>
    </mxGraphModel>
  </diagram>
</mxfile>
